<svg width="770" height="332" viewBox="0 0 770 332" fill="none" xmlns="http://www.w3.org/2000/svg">
<g opacity="0.48">
<circle cx="16" cy="147" r="16" fill="#FFFAFE"/>
<circle cx="16" cy="147" r="14.5" stroke="#A90000" stroke-opacity="0.14" stroke-width="3"/>
<circle cx="140" cy="77" r="16" fill="#FFFAFE"/>
<circle cx="140" cy="77" r="14.5" stroke="#A90000" stroke-opacity="0.14" stroke-width="3"/>
<circle cx="222.5" cy="300.5" r="31.5" fill="#FFFAFE"/>
<circle cx="222.5" cy="300.5" r="30" stroke="#A90000" stroke-opacity="0.14" stroke-width="3"/>
<circle cx="346" cy="191" r="23" fill="#FFFAFE"/>
<circle cx="346" cy="191" r="21.5" stroke="#A90000" stroke-opacity="0.14" stroke-width="3"/>
<circle cx="445" cy="124" r="23" fill="#FFFAFE"/>
<circle cx="445" cy="124" r="21.5" stroke="#A90000" stroke-opacity="0.14" stroke-width="3"/>
<circle cx="533" cy="219" r="23" fill="#FFFAFE"/>
<circle cx="533" cy="219" r="21.5" stroke="#A90000" stroke-opacity="0.14" stroke-width="3"/>
<circle cx="631" cy="136" r="23" fill="#FFFAFE"/>
<circle cx="631" cy="136" r="21.5" stroke="#A90000" stroke-opacity="0.14" stroke-width="3"/>
<circle cx="761" cy="211" r="60" fill="#FFFAFE"/>
<circle cx="761" cy="211" r="58.5" stroke="#A90000" stroke-opacity="0.14" stroke-width="3"/>
</g>
<g opacity="0.47">
<rect x="64" y="28" width="39" height="39" fill="#F7FDFF"/>
<rect x="65.5" y="29.5" width="36" height="36" stroke="#3AB4DC" stroke-opacity="0.22" stroke-width="3"/>
<rect x="212" width="39" height="39" fill="#F7FDFF"/>
<rect x="213.5" y="1.5" width="36" height="36" stroke="#3AB4DC" stroke-opacity="0.22" stroke-width="3"/>
<rect x="302" y="244" width="39" height="39" fill="#F7FDFF"/>
<rect x="303.5" y="245.5" width="36" height="36" stroke="#3AB4DC" stroke-opacity="0.22" stroke-width="3"/>
<rect x="390" y="167" width="63" height="63" fill="#F7FDFF"/>
<rect x="391.5" y="168.5" width="60" height="60" stroke="#3AB4DC" stroke-opacity="0.22" stroke-width="3"/>
<rect x="501" y="66" width="63" height="63" fill="#F7FDFF"/>
<rect x="502.5" y="67.5" width="60" height="60" stroke="#3AB4DC" stroke-opacity="0.22" stroke-width="3"/>
<rect x="573" y="183" width="99" height="99" fill="#F7FDFF"/>
<rect x="574.5" y="184.5" width="96" height="96" stroke="#3AB4DC" stroke-opacity="0.22" stroke-width="3"/>
<rect x="21" y="152" width="23" height="23" fill="#F7FDFF"/>
<rect x="22.5" y="153.5" width="20" height="20" stroke="#3AB4DC" stroke-opacity="0.22" stroke-width="3"/>
<rect x="745" y="35" width="99" height="99" fill="#F7FDFF"/>
<rect x="746.5" y="36.5" width="96" height="96" stroke="#3AB4DC" stroke-opacity="0.22" stroke-width="3"/>
</g>
</svg>
