<svg width="405" height="153" viewBox="0 0 405 153" fill="none" xmlns="http://www.w3.org/2000/svg">
<path opacity="0.5" d="M402 86L381 52L359 101L345 70L331 140L316 43L289 79L272 152L239 10L208 79L195 43L171 140L154 58L134 79L128 1L114 145L84 58L61 86L46 124L22 34L-9 86L-68 26L-117 101L-162 43L-202 95L-277 52L-316 86L-385 52L-432 95L-521 34L-603 95L-659 43" stroke="#5FD8FF" stroke-opacity="0.3" stroke-width="4"/>
<path opacity="0.5" d="M405 83C389 83 388 118 377 115C366 112 366 83 356 59C346 35 344 66 331 83C318 100 309 66 301 49C293 32 284 -11 258 59C232 129 232 84 200 66C168 48 149.76 122.657 49 77C-79 19 -149 66 -200 66C-251 66 -270 35 -341 35C-383.012 35 -442 77 -504 77C-566 77 -577 49 -687 49" stroke="#FF5656" stroke-opacity="0.3" stroke-width="4"/>
</svg>
