<svg width="1092" height="99" viewBox="0 0 1092 99" fill="none" xmlns="http://www.w3.org/2000/svg">
<path opacity="0.5" d="M1092 64.7008C1076 64.7008 1075 99.7008 1064 96.7008C1053 93.7008 1053 64.7008 1043 40.7008C1033 16.7008 1031 47.7008 1018 64.7008C1005 81.7008 996 47.7008 988 30.7008C980 13.7008 971 -29.2992 945 40.7008C919 110.701 919 65.7008 887 47.7008C855 29.7008 836.76 104.358 736 58.7008C608 0.700806 538 47.7008 487 47.7008C436 47.7008 417 16.7008 346 16.7008C303.988 16.7008 245 58.7008 183 58.7008C121 58.7008 110 30.7008 0 30.7008" stroke="#FF5FEF" stroke-width="4"/>
</svg>
