<svg width="216" height="156" viewBox="0 0 216 156" fill="none" xmlns="http://www.w3.org/2000/svg">
<path d="M78.1455 23.9033H101.902V93H86.9443V38.3955H78.1455V23.9033Z" fill="#6F6F6F"/>
<path d="M112.748 23.9033H153.378L127.292 93H111.402L131.847 38.085H112.748V23.9033Z" fill="#6F6F6F"/>
<ellipse cx="110.5" cy="104.5" rx="83.5" ry="37.5" fill="url(#paint0_radial_260_73)"/>
<path d="M0 93H216V156H0V93Z" fill="#FCFCFC"/>
<path d="M81.416 105.795L75.4492 117.386V124H72.4277V117.449L66.6133 105.795H70.0537L73.6338 113.603C73.6761 113.696 73.8031 114.047 74.0146 114.656H74.0527C74.1289 114.385 74.2686 114.034 74.4717 113.603L78.2168 105.795H81.416ZM93.959 124H83.7393V105.795H93.5527V108.359H86.7607V113.514H93.0195V116.065H86.7607V121.448H93.959V124ZM112.151 124H108.838L107.2 119.366H100.04L98.4658 124H95.165L101.982 105.795H105.385L112.151 124ZM106.4 116.903L103.874 109.642C103.798 109.405 103.717 109.024 103.633 108.499H103.582C103.506 108.981 103.421 109.362 103.328 109.642L100.827 116.903H106.4ZM128.731 124H125.202L122.295 119.125C122.033 118.676 121.774 118.296 121.521 117.982C121.275 117.661 121.021 117.398 120.759 117.195C120.505 116.992 120.226 116.844 119.921 116.751C119.616 116.658 119.273 116.611 118.893 116.611H117.674V124H114.665V105.795H120.657C121.512 105.795 122.299 105.896 123.019 106.1C123.738 106.303 124.364 106.612 124.897 107.026C125.431 107.433 125.845 107.945 126.142 108.562C126.446 109.172 126.599 109.887 126.599 110.708C126.599 111.351 126.501 111.944 126.307 112.485C126.12 113.019 125.85 113.497 125.494 113.92C125.147 114.335 124.724 114.69 124.225 114.986C123.734 115.283 123.179 115.511 122.562 115.672V115.723C122.892 115.909 123.179 116.116 123.425 116.345C123.67 116.565 123.903 116.793 124.123 117.03C124.343 117.267 124.559 117.538 124.771 117.843C124.991 118.139 125.232 118.486 125.494 118.884L128.731 124ZM117.674 108.245V114.161H120.188C120.653 114.161 121.08 114.089 121.47 113.945C121.868 113.801 122.21 113.594 122.498 113.323C122.786 113.052 123.01 112.722 123.171 112.333C123.332 111.944 123.412 111.508 123.412 111.025C123.412 110.154 123.137 109.472 122.587 108.981C122.037 108.491 121.245 108.245 120.213 108.245H117.674ZM133.137 105.693V111.368H130.813V105.693H133.137ZM136.755 123.276V120.166C137.034 120.42 137.364 120.648 137.745 120.852C138.134 121.055 138.545 121.228 138.977 121.372C139.408 121.507 139.84 121.613 140.271 121.689C140.703 121.766 141.101 121.804 141.465 121.804C142.734 121.804 143.678 121.592 144.296 121.169C144.922 120.746 145.235 120.132 145.235 119.328C145.235 118.896 145.13 118.524 144.918 118.211C144.715 117.889 144.427 117.597 144.055 117.335C143.682 117.073 143.242 116.823 142.734 116.586C142.235 116.34 141.698 116.087 141.122 115.824C140.504 115.494 139.929 115.16 139.396 114.821C138.862 114.483 138.397 114.11 137.999 113.704C137.61 113.289 137.301 112.824 137.072 112.308C136.852 111.791 136.742 111.186 136.742 110.492C136.742 109.637 136.933 108.897 137.313 108.271C137.703 107.636 138.211 107.115 138.837 106.709C139.472 106.294 140.191 105.99 140.995 105.795C141.799 105.592 142.62 105.49 143.458 105.49C145.362 105.49 146.75 105.706 147.622 106.138V109.121C146.59 108.376 145.261 108.004 143.636 108.004C143.187 108.004 142.739 108.046 142.29 108.131C141.85 108.215 141.452 108.355 141.097 108.55C140.75 108.744 140.466 108.994 140.246 109.299C140.026 109.604 139.916 109.972 139.916 110.403C139.916 110.81 140.001 111.161 140.17 111.457C140.339 111.753 140.585 112.024 140.906 112.27C141.236 112.515 141.634 112.756 142.1 112.993C142.574 113.222 143.119 113.471 143.737 113.742C144.372 114.072 144.969 114.419 145.527 114.783C146.094 115.147 146.59 115.549 147.013 115.989C147.444 116.429 147.783 116.92 148.028 117.462C148.282 117.995 148.409 118.604 148.409 119.29C148.409 120.213 148.223 120.991 147.851 121.626C147.478 122.261 146.975 122.777 146.34 123.175C145.714 123.573 144.99 123.86 144.169 124.038C143.348 124.216 142.48 124.305 141.566 124.305C141.262 124.305 140.885 124.279 140.437 124.229C139.996 124.186 139.544 124.118 139.078 124.025C138.613 123.941 138.173 123.835 137.758 123.708C137.343 123.581 137.009 123.437 136.755 123.276Z" fill="#535353"/>
<defs>
<radialGradient id="paint0_radial_260_73" cx="0" cy="0" r="1" gradientUnits="userSpaceOnUse" gradientTransform="translate(110.5 104.5) rotate(90) scale(37.5 83.5)">
<stop/>
<stop offset="0.785714" stop-opacity="0"/>
</radialGradient>
</defs>
</svg>
